<?xml version="1.0" encoding="UTF-8"?>
<svg xmlns="http://www.w3.org/2000/svg" xmlns:xlink="http://www.w3.org/1999/xlink"  viewBox="24.3 308.3 582.5 200.6">
<path fill-rule="evenodd" fill="rgb(12.156677%, 12.156677%, 12.156677%)" fill-opacity="1" d="M 508.015625 394.328125 L 508.015625 430.863281 L 500.519531 430.863281 L 500.519531 377.933594 C 513.863281 390.242188 526.992188 402.355469 540.503906 414.828125 L 540.503906 377.972656 L 547.890625 377.972656 L 547.890625 431 C 534.59375 418.765625 521.484375 406.707031 508.015625 394.328125 "/>
<path fill-rule="evenodd" fill="rgb(12.156677%, 12.156677%, 12.156677%)" fill-opacity="1" d="M 558.433594 430.839844 L 558.433594 377.972656 C 558.976562 377.929688 559.457031 377.867188 559.925781 377.867188 C 568.859375 377.851562 577.785156 377.878906 586.710938 377.824219 C 588.179688 377.8125 588.667969 378.199219 588.578125 379.5625 C 588.464844 381.363281 588.550781 383.179688 588.550781 385.167969 L 565.871094 385.167969 L 565.871094 398.242188 C 566.46875 398.269531 567.113281 398.308594 567.757812 398.324219 C 574.101562 398.324219 580.445312 398.347656 586.789062 398.296875 C 588.148438 398.269531 588.679688 398.617188 588.574219 399.925781 C 588.464844 401.273438 588.464844 402.648438 588.574219 403.996094 C 588.671875 405.28125 588.203125 405.667969 586.816406 405.652344 C 580.53125 405.585938 574.246094 405.628906 567.96875 405.628906 L 565.851562 405.628906 L 565.851562 423.640625 L 588.402344 423.640625 L 588.402344 430.839844 Z M 558.433594 430.839844 "/>
<path fill-rule="evenodd" fill="rgb(12.156677%, 12.156677%, 12.156677%)" fill-opacity="1" d="M 474.804688 430.878906 L 467.179688 430.878906 L 467.179688 428.984375 C 467.179688 422.089844 467.21875 415.230469 467.144531 408.351562 C 467.136719 407.390625 466.832031 406.320312 466.328125 405.480469 C 461.09375 396.878906 455.792969 388.292969 450.507812 379.722656 C 450.214844 379.242188 449.964844 378.746094 449.558594 378.011719 C 452.265625 378.011719 454.714844 377.957031 457.148438 378.066406 C 457.640625 378.09375 458.242188 378.707031 458.542969 379.171875 C 462.363281 385.195312 466.128906 391.246094 469.917969 397.28125 C 470.246094 397.816406 470.601562 398.324219 471.074219 399.058594 C 471.535156 398.347656 471.917969 397.789062 472.277344 397.214844 C 475.960938 391.246094 479.667969 385.300781 483.3125 379.320312 C 483.890625 378.359375 484.527344 377.917969 485.761719 377.984375 C 487.898438 378.078125 490.046875 378.011719 492.464844 378.011719 C 492.015625 378.8125 491.714844 379.414062 491.359375 379.988281 C 486.105469 388.453125 480.832031 396.90625 475.625 405.386719 C 475.140625 406.1875 474.847656 407.175781 474.835938 408.085938 C 474.773438 415.027344 474.804688 421.945312 474.804688 428.886719 Z M 474.804688 430.878906 "/>
<path fill-rule="evenodd" fill="rgb(12.156677%, 12.156677%, 12.156677%)" fill-opacity="1" d="M 426.566406 378.09375 L 433.800781 378.09375 L 433.800781 423.707031 L 451.402344 423.707031 L 451.402344 430.851562 L 426.566406 430.851562 Z M 426.566406 378.09375 "/>
<path fill-rule="evenodd" fill="rgb(94.509888%, 41.567993%, 14.117432%)" fill-opacity="1" d="M 192.980469 430.957031 L 192.980469 385.277344 L 205.878906 385.277344 C 205.878906 383.234375 205.761719 381.417969 205.90625 379.613281 C 206.03125 378.039062 205.347656 377.71875 203.785156 377.71875 C 194.007812 377.785156 184.21875 377.746094 174.433594 377.757812 C 173.835938 377.757812 173.246094 377.824219 172.59375 377.863281 L 172.59375 385.355469 L 185.285156 385.355469 L 185.285156 430.957031 Z M 165.558594 385.609375 C 160.59375 378.503906 144.554688 374.6875 136.132812 383.140625 C 131.824219 387.453125 131.425781 393.355469 135.105469 398.136719 C 137.007812 400.59375 139.449219 402.460938 142.394531 403.742188 C 145.34375 405.011719 148.34375 406.1875 151.3125 407.429688 C 153.945312 408.523438 156.183594 410.0625 157.6875 412.410156 C 159.832031 415.75 159.058594 419.714844 155.605469 421.917969 C 151.703125 424.402344 147.59375 424.109375 143.558594 422.171875 C 140.949219 420.902344 139.355469 418.742188 137.941406 416.429688 C 137.695312 416.03125 137.027344 415.480469 136.6875 415.5625 C 134.371094 416.03125 132.09375 416.65625 129.785156 417.246094 C 129.917969 417.75 129.953125 418.03125 130.0625 418.300781 C 133.433594 426.445312 140.847656 431.105469 150.289062 431.050781 C 157.34375 431.011719 163.722656 426.953125 166.003906 421.078125 C 168.308594 415.121094 166.4375 408.417969 160.753906 404.386719 C 157.621094 402.183594 153.902344 400.671875 150.410156 398.898438 C 148.210938 397.789062 145.875 396.878906 143.730469 395.679688 C 141.664062 394.515625 140.382812 392.78125 140.867188 390.390625 C 141.304688 388.199219 142.953125 386.933594 145.113281 386.304688 C 149.683594 384.96875 153.976562 385.222656 157.613281 388.519531 C 158.171875 389.027344 158.78125 389.507812 159.449219 390.058594 C 161.542969 388.535156 163.558594 387.066406 165.558594 385.609375 M 341.871094 431.050781 C 333.226562 413.171875 324.742188 395.597656 316.257812 378.050781 C 316.09375 378.039062 315.921875 378.039062 315.757812 378.027344 C 307.332031 395.613281 298.902344 413.199219 290.351562 431.050781 C 292.769531 431.050781 294.789062 430.984375 296.808594 431.078125 C 298.03125 431.132812 298.660156 430.785156 299.144531 429.691406 C 300.695312 426.230469 302.429688 422.851562 303.996094 419.394531 C 304.4375 418.433594 304.960938 418.03125 306.152344 418.03125 C 312.738281 418.101562 319.324219 418.085938 325.90625 418.03125 C 327.089844 418.03125 327.648438 418.417969 328.09375 419.394531 C 329.710938 422.878906 331.386719 426.351562 333.132812 429.796875 C 333.390625 430.316406 334.0625 430.957031 334.585938 430.984375 C 336.847656 431.117188 339.121094 431.050781 341.871094 431.050781 M 287.203125 385.316406 C 287.203125 383.234375 287.089844 381.402344 287.242188 379.601562 C 287.371094 378.027344 286.695312 377.71875 285.136719 377.71875 C 276.511719 377.785156 267.894531 377.746094 259.269531 377.746094 C 256.804688 377.757812 256.800781 377.757812 256.800781 379.976562 C 256.800781 396.292969 256.800781 412.597656 256.804688 428.914062 C 256.804688 429.570312 256.871094 430.238281 256.910156 430.90625 L 287.035156 430.90625 L 287.035156 423.546875 L 264.71875 423.546875 L 264.71875 405.71875 L 267.226562 405.71875 C 273.320312 405.71875 279.417969 405.746094 285.511719 405.695312 C 286.074219 405.695312 287.097656 405.199219 287.113281 404.894531 C 287.257812 402.753906 287.1875 400.605469 287.1875 398.214844 L 264.738281 398.214844 L 264.738281 385.316406 Z M 232.4375 408.472656 C 234.164062 407.882812 235.691406 407.429688 237.140625 406.84375 C 244.386719 403.878906 248.152344 397.308594 246.554688 390.152344 C 245.039062 383.378906 239.9375 379.640625 233.015625 378.492188 C 227.863281 377.636719 222.488281 378 217.21875 377.71875 C 215.433594 377.636719 214.941406 378.171875 214.941406 379.816406 C 215.007812 396.226562 214.980469 412.652344 214.980469 429.0625 C 214.984375 429.675781 215.042969 430.277344 215.070312 430.957031 L 222.789062 430.957031 L 222.789062 409.324219 C 222.984375 409.234375 223.171875 409.125 223.351562 409.03125 C 223.855469 409.472656 224.476562 409.832031 224.839844 410.355469 C 229.324219 416.804688 233.773438 423.265625 238.246094 429.730469 C 238.570312 430.183594 239 430.917969 239.410156 430.933594 C 242.175781 431.050781 244.953125 431 248.0625 431 C 242.722656 423.292969 237.617188 415.949219 232.4375 408.472656 M 376.289062 415.335938 C 370.601562 402.664062 365.078125 390.351562 359.558594 378.050781 C 359.394531 378.066406 359.242188 378.078125 359.078125 378.105469 C 354.15625 395.679688 349.234375 413.25 344.25 431.050781 C 346.5 431.050781 348.457031 430.984375 350.40625 431.078125 C 351.59375 431.132812 351.992188 430.679688 352.257812 429.691406 C 353.566406 424.789062 354.949219 419.914062 356.316406 415.027344 C 357.78125 409.78125 359.257812 404.53125 360.847656 398.828125 C 366.027344 409.78125 371.027344 420.34375 376.226562 431.332031 C 381.464844 420.421875 386.464844 410.007812 391.679688 399.152344 C 392.363281 401.554688 392.914062 403.4375 393.441406 405.347656 C 395.679688 413.410156 397.894531 421.492188 400.171875 429.542969 C 400.324219 430.105469 400.882812 430.945312 401.308594 430.972656 C 403.5 431.117188 405.710938 431.039062 408.207031 431.039062 C 403.226562 413.25 398.308594 395.691406 393.394531 378.144531 L 392.863281 378.144531 C 387.390625 390.417969 381.917969 402.691406 376.289062 415.335938 M 26.421875 404.371094 C 34.089844 401.675781 41.316406 399.152344 48.546875 396.613281 C 112.242188 374.273438 175.933594 351.933594 239.632812 329.605469 C 253.351562 324.796875 267.027344 319.832031 280.886719 315.355469 C 294.222656 311.042969 308.082031 309.867188 322.171875 310.898438 C 365.644531 314.0625 405.546875 342.332031 416.460938 385.542969 C 425.175781 419.996094 415.957031 450.613281 389.773438 476.492188 C 373.894531 492.183594 354 501.480469 331.128906 505.136719 C 310.609375 508.421875 290.742188 506.019531 271.527344 498.632812 C 190.507812 467.480469 109.484375 436.378906 28.464844 405.253906 C 27.90625 405.039062 27.367188 404.785156 26.421875 404.371094 "/>
<path fill-rule="evenodd" fill="rgb(100%, 100%, 100%)" fill-opacity="1" d="M 376.289062 415.335938 C 381.914062 402.6875 387.390625 390.417969 392.863281 378.132812 C 393.042969 378.144531 393.214844 378.144531 393.394531 378.144531 C 398.308594 395.691406 403.226562 413.253906 408.207031 431.039062 C 405.710938 431.039062 403.5 431.117188 401.308594 430.972656 C 400.882812 430.945312 400.324219 430.105469 400.171875 429.542969 C 397.894531 421.492188 395.679688 413.410156 393.441406 405.347656 C 392.914062 403.449219 392.363281 401.554688 391.679688 399.136719 C 386.464844 410.007812 381.460938 420.421875 376.226562 431.332031 C 371.027344 420.34375 366.027344 409.78125 360.847656 398.84375 C 359.257812 404.53125 357.785156 409.78125 356.316406 415.027344 C 354.949219 419.914062 353.566406 424.789062 352.257812 429.691406 C 351.992188 430.679688 351.59375 431.132812 350.40625 431.078125 C 348.457031 430.984375 346.5 431.050781 344.25 431.050781 C 349.234375 413.253906 354.15625 395.679688 359.078125 378.105469 C 359.242188 378.078125 359.394531 378.066406 359.558594 378.050781 C 365.078125 390.351562 370.601562 402.660156 376.289062 415.335938 "/>
<path fill-rule="evenodd" fill="rgb(100%, 100%, 100%)" fill-opacity="1" d="M 222.824219 402.515625 C 226.953125 402.769531 230.707031 402.4375 234.1875 400.792969 C 237.988281 399.003906 239.058594 395.917969 238.652344 392.234375 C 238.296875 388.976562 236.398438 386.585938 233.0625 385.742188 C 230.152344 384.996094 227.039062 384.914062 224.007812 384.636719 C 223.652344 384.609375 222.882812 385.195312 222.878906 385.515625 C 222.808594 391.125 222.824219 396.71875 222.824219 402.515625 M 232.4375 408.484375 C 237.621094 415.949219 242.71875 423.292969 248.0625 431 C 244.953125 431 242.179688 431.050781 239.410156 430.933594 C 239 430.917969 238.566406 430.183594 238.25 429.714844 C 233.773438 423.265625 229.324219 416.804688 224.835938 410.355469 C 224.476562 409.832031 223.855469 409.472656 223.351562 409.03125 C 223.171875 409.125 222.984375 409.21875 222.789062 409.324219 L 222.789062 430.957031 L 215.070312 430.957031 C 215.042969 430.277344 214.984375 429.675781 214.980469 429.0625 C 214.980469 412.652344 215.003906 396.226562 214.941406 379.816406 C 214.933594 378.171875 215.433594 377.636719 217.21875 377.71875 C 222.488281 378 227.863281 377.636719 233.015625 378.492188 C 239.941406 379.640625 245.039062 383.378906 246.554688 390.152344 C 248.152344 397.308594 244.382812 403.878906 237.140625 406.828125 C 235.6875 407.429688 234.167969 407.882812 232.4375 408.484375 "/>
<path fill-rule="evenodd" fill="rgb(100%, 100%, 100%)" fill-opacity="1" d="M 287.203125 385.316406 L 264.734375 385.316406 L 264.734375 398.214844 L 287.1875 398.214844 C 287.1875 400.605469 287.257812 402.757812 287.113281 404.890625 C 287.097656 405.199219 286.078125 405.679688 285.511719 405.695312 C 279.421875 405.746094 273.320312 405.71875 267.226562 405.71875 L 264.71875 405.71875 L 264.71875 423.546875 L 287.035156 423.546875 L 287.035156 430.90625 L 256.90625 430.90625 C 256.871094 430.238281 256.804688 429.570312 256.804688 428.914062 C 256.800781 412.597656 256.800781 396.292969 256.800781 379.976562 C 256.800781 377.757812 256.8125 377.757812 259.269531 377.746094 C 267.894531 377.746094 276.511719 377.785156 285.136719 377.71875 C 286.695312 377.71875 287.375 378.023438 287.242188 379.601562 C 287.089844 381.402344 287.203125 383.234375 287.203125 385.316406 "/>
<path fill-rule="evenodd" fill="rgb(100%, 100%, 100%)" fill-opacity="1" d="M 307.679688 411.742188 L 324.378906 411.742188 C 321.578125 405.933594 318.867188 400.324219 315.976562 394.328125 C 313.113281 400.339844 310.460938 405.90625 307.679688 411.742188 M 341.875 431.050781 C 339.117188 431.050781 336.84375 431.117188 334.582031 430.984375 C 334.0625 430.957031 333.390625 430.316406 333.128906 429.796875 C 331.390625 426.351562 329.710938 422.878906 328.09375 419.394531 C 327.648438 418.417969 327.089844 418.03125 325.910156 418.03125 C 319.324219 418.085938 312.738281 418.097656 306.15625 418.03125 C 304.960938 418.03125 304.433594 418.433594 303.996094 419.394531 C 302.429688 422.851562 300.695312 426.230469 299.144531 429.691406 C 298.660156 430.785156 298.035156 431.132812 296.808594 431.078125 C 294.789062 430.984375 292.769531 431.050781 290.351562 431.050781 C 298.90625 413.199219 307.332031 395.613281 315.757812 378.023438 C 315.917969 378.023438 316.089844 378.039062 316.257812 378.050781 C 324.742188 395.597656 333.230469 413.171875 341.875 431.050781 "/>
<path fill-rule="evenodd" fill="rgb(100%, 100%, 100%)" fill-opacity="1" d="M 165.558594 385.609375 C 163.558594 387.066406 161.542969 388.535156 159.449219 390.058594 C 158.78125 389.507812 158.171875 389.027344 157.613281 388.519531 C 153.976562 385.222656 149.683594 384.980469 145.113281 386.304688 C 142.957031 386.933594 141.304688 388.199219 140.867188 390.390625 C 140.378906 392.769531 141.664062 394.503906 143.722656 395.679688 C 145.875 396.878906 148.210938 397.789062 150.40625 398.898438 C 153.902344 400.671875 157.621094 402.183594 160.753906 404.398438 C 166.4375 408.417969 168.308594 415.121094 166.003906 421.078125 C 163.722656 426.953125 157.34375 431.011719 150.292969 431.050781 C 140.84375 431.105469 133.4375 426.445312 130.0625 418.300781 C 129.953125 418.03125 129.917969 417.753906 129.78125 417.246094 C 132.09375 416.65625 134.375 416.027344 136.6875 415.5625 C 137.027344 415.480469 137.695312 416.027344 137.941406 416.429688 C 139.351562 418.738281 140.949219 420.902344 143.558594 422.171875 C 147.589844 424.109375 151.703125 424.402344 155.601562 421.917969 C 159.058594 419.714844 159.839844 415.75 157.6875 412.410156 C 156.179688 410.058594 153.945312 408.523438 151.308594 407.429688 C 148.34375 406.1875 145.339844 405.011719 142.394531 403.742188 C 139.453125 402.460938 137.007812 400.59375 135.105469 398.136719 C 131.425781 393.355469 131.828125 387.453125 136.132812 383.125 C 144.554688 374.6875 160.59375 378.507812 165.558594 385.609375 "/>
<path fill-rule="evenodd" fill="rgb(100%, 100%, 100%)" fill-opacity="1" d="M 192.980469 430.957031 L 185.285156 430.957031 L 185.285156 385.355469 L 172.59375 385.355469 L 172.59375 377.863281 C 173.246094 377.824219 173.835938 377.757812 174.433594 377.757812 C 184.21875 377.746094 194.007812 377.785156 203.785156 377.71875 C 205.347656 377.71875 206.03125 378.039062 205.90625 379.613281 C 205.761719 381.417969 205.878906 383.234375 205.878906 385.277344 L 192.980469 385.277344 Z M 192.980469 430.957031 "/>
<path fill-rule="evenodd" fill="rgb(94.509888%, 41.567993%, 14.117432%)" fill-opacity="1" d="M 222.824219 402.515625 C 222.824219 396.71875 222.808594 391.125 222.878906 385.515625 C 222.882812 385.195312 223.652344 384.609375 224.007812 384.636719 C 227.039062 384.914062 230.152344 384.996094 233.0625 385.742188 C 236.398438 386.585938 238.296875 388.976562 238.652344 392.234375 C 239.058594 395.917969 237.988281 399.003906 234.1875 400.792969 C 230.707031 402.4375 226.953125 402.769531 222.824219 402.515625 "/>
<path fill-rule="evenodd" fill="rgb(94.509888%, 41.567993%, 14.117432%)" fill-opacity="1" d="M 307.679688 411.742188 C 310.460938 405.90625 313.113281 400.339844 315.976562 394.328125 C 318.867188 400.324219 321.578125 405.933594 324.378906 411.742188 Z M 307.679688 411.742188 "/>
<path fill-rule="nonzero" fill="rgb(12.156677%, 12.156677%, 12.156677%)" fill-opacity="1" d="M 597.207031 370.09375 L 597.894531 370.09375 C 598.699219 370.09375 599.351562 369.828125 599.351562 369.171875 C 599.351562 368.597656 598.929688 368.210938 598.011719 368.210938 C 597.628906 368.210938 597.359375 368.25 597.207031 368.289062 Z M 597.167969 373.605469 L 595.714844 373.605469 L 595.714844 367.328125 C 596.285156 367.261719 597.09375 367.140625 598.125 367.140625 C 599.3125 367.140625 599.847656 367.328125 600.269531 367.636719 C 600.652344 367.902344 600.921875 368.371094 600.921875 368.984375 C 600.921875 369.746094 600.34375 370.242188 599.617188 370.46875 L 599.617188 370.546875 C 600.230469 370.746094 600.539062 371.242188 600.726562 372.082031 C 600.921875 373.03125 601.070312 373.378906 601.1875 373.605469 L 599.65625 373.605469 C 599.464844 373.378906 599.351562 372.84375 599.15625 372.082031 C 599.042969 371.429688 598.660156 371.121094 597.855469 371.121094 L 597.167969 371.121094 Z M 593.300781 370.359375 C 593.300781 373.152344 595.40625 375.367188 598.199219 375.367188 C 600.921875 375.410156 602.988281 373.152344 602.988281 370.402344 C 602.988281 367.597656 600.921875 365.339844 598.125 365.339844 C 595.40625 365.339844 593.300781 367.597656 593.300781 370.359375 M 604.597656 370.359375 C 604.597656 373.871094 601.761719 376.675781 598.164062 376.675781 C 594.566406 376.675781 591.695312 373.871094 591.695312 370.359375 C 591.695312 366.835938 594.566406 364.085938 598.199219 364.085938 C 601.761719 364.085938 604.597656 366.835938 604.597656 370.359375 "/>
</svg>
